<svg width="230" height="70" viewBox="0 0 230 70" fill="none" xmlns="http://www.w3.org/2000/svg">
<path d="M22.2295 16.8334C32.1499 17.4413 36.6298 16.6235 39.7554 16.6235C42.6623 16.6235 44.03 26.183 42.8354 29.0059C41.709 31.6675 22.5414 31.7744 21.649 30.7203C20.617 29.5009 21.2137 24.4093 21.2137 22.6625" stroke="#262626" stroke-width="1.5" stroke-linecap="round" stroke-linejoin="round"/>
<path d="M22.2915 33.8369C8.66755 46.4358 25.1563 44.1874 28.5291 46.8855" stroke="#262626" stroke-width="1.5" stroke-linecap="round" stroke-linejoin="round"/>
<path d="M22.2913 33.8369C22.474 36.7129 22.6455 43.2123 22.5329 44.1124" stroke="#262626" stroke-width="1.5" stroke-linecap="round" stroke-linejoin="round"/>
<path d="M36.0385 27.0297C36.0385 26.4947 36.0385 25.9596 36.0385 25.4243" stroke="#262626" stroke-width="1.5" stroke-linecap="round" stroke-linejoin="round"/>
<path d="M32.1624 27.1587C32.1294 26.7352 32.1625 25.7649 32.1625 25.4243" stroke="#262626" stroke-width="1.5" stroke-linecap="round" stroke-linejoin="round"/>
<path d="M35.4247 40.2151C54.0121 39.9903 56.8601 38.3414 49.0655 52.7315" stroke="#262626" stroke-width="1.5" stroke-linecap="round" stroke-linejoin="round"/>
<path d="M45.6937 53.181C34.6012 52.7312 27.1064 56.7786 32.2779 43.063" stroke="#262626" stroke-width="1.5" stroke-linecap="round" stroke-linejoin="round"/>
<path d="M32.5023 53.1811C30.0963 51.4232 27.4128 50.0267 25.0823 48.0845" stroke="#262626" stroke-width="1.5" stroke-linecap="round" stroke-linejoin="round"/>
<path d="M37.2994 33.7695C37.378 35.6953 37.4493 37.6123 37.4493 39.5405" stroke="#262626" stroke-width="1.5" stroke-linecap="round" stroke-linejoin="round"/>
<path d="M37.2994 33.7695C38.237 35.2547 39.1213 36.2213 40.2221 38.7909" stroke="#262626" stroke-width="1.5" stroke-linecap="round" stroke-linejoin="round"/>
<path d="M20.0147 24.8799C19.45 25.0275 18.8811 24.9985 18.3052 25.051" stroke="#262626" stroke-width="1.5" stroke-linecap="round" stroke-linejoin="round"/>
<path d="M17.4492 23.6836C17.4567 24.7195 17.449 25.7393 17.3638 26.7607" stroke="#262626" stroke-width="1.5" stroke-linecap="round" stroke-linejoin="round"/>
<path d="M44.7177 24.4526C45.1444 24.4084 45.5737 24.3527 45.9997 24.2817" stroke="#262626" stroke-width="1.5" stroke-linecap="round" stroke-linejoin="round"/>
<path d="M46.4265 23.0854C46.5478 23.7638 46.5119 24.4517 46.5119 25.1368" stroke="#262626" stroke-width="1.5" stroke-linecap="round" stroke-linejoin="round"/>
<path d="M38.221 24.5582C35.4203 24.2491 32.7071 24.3968 30.0155 24.821" stroke="#262626" stroke-width="1.5" stroke-linecap="round" stroke-linejoin="round"/>
<path d="M83.39 33L82.298 29.724H75.044L73.952 33H70.078L76.448 14.8H80.894L87.29 33H83.39ZM76.188 26.37H81.18L78.684 18.934L76.188 26.37ZM89.0572 14.8H92.6452V33H89.0572V14.8ZM116.996 20H120.558L116.424 33H113.226L110.834 25.122L108.442 33H105.244L101.11 20H104.672L106.882 27.982L109.248 20H112.42L114.786 28.008L116.996 20ZM132.934 31.388C131.6 32.7053 129.97 33.364 128.046 33.364C126.122 33.364 124.493 32.7053 123.158 31.388C121.841 30.0533 121.182 28.424 121.182 26.5C121.182 24.576 121.841 22.9553 123.158 21.638C124.493 20.3033 126.122 19.636 128.046 19.636C129.97 19.636 131.6 20.3033 132.934 21.638C134.269 22.9553 134.936 24.576 134.936 26.5C134.936 28.424 134.269 30.0533 132.934 31.388ZM125.524 29.074C126.2 29.75 127.041 30.088 128.046 30.088C129.052 30.088 129.892 29.75 130.568 29.074C131.244 28.398 131.582 27.54 131.582 26.5C131.582 25.46 131.244 24.602 130.568 23.926C129.892 23.25 129.052 22.912 128.046 22.912C127.041 22.912 126.2 23.25 125.524 23.926C124.866 24.602 124.536 25.46 124.536 26.5C124.536 27.54 124.866 28.398 125.524 29.074ZM140.65 22.236C140.962 21.404 141.473 20.78 142.184 20.364C142.912 19.948 143.718 19.74 144.602 19.74V23.484C143.579 23.3627 142.66 23.5707 141.846 24.108C141.048 24.6453 140.65 25.538 140.65 26.786V33H137.296V20H140.65V22.236ZM158.549 33H154.649L149.917 27.098V33H146.563V14.8H149.917V25.72L154.389 20H158.393L153.167 26.422L158.549 33ZM167.217 17.66C165.38 17.5213 164.461 18.258 164.461 19.87V20H167.217V23.224H164.461V33H161.107V23.224H159.235V20H161.107V19.87C161.107 18.0327 161.619 16.6373 162.641 15.684C163.664 14.7307 165.189 14.3147 167.217 14.436V17.66ZM179.348 31.388C178.014 32.7053 176.384 33.364 174.46 33.364C172.536 33.364 170.907 32.7053 169.572 31.388C168.255 30.0533 167.596 28.424 167.596 26.5C167.596 24.576 168.255 22.9553 169.572 21.638C170.907 20.3033 172.536 19.636 174.46 19.636C176.384 19.636 178.014 20.3033 179.348 21.638C180.683 22.9553 181.35 24.576 181.35 26.5C181.35 28.424 180.683 30.0533 179.348 31.388ZM171.938 29.074C172.614 29.75 173.455 30.088 174.46 30.088C175.466 30.088 176.306 29.75 176.982 29.074C177.658 28.398 177.996 27.54 177.996 26.5C177.996 25.46 177.658 24.602 176.982 23.926C176.306 23.25 175.466 22.912 174.46 22.912C173.455 22.912 172.614 23.25 171.938 23.926C171.28 24.602 170.95 25.46 170.95 26.5C170.95 27.54 171.28 28.398 171.938 29.074ZM187.064 22.236C187.376 21.404 187.887 20.78 188.598 20.364C189.326 19.948 190.132 19.74 191.016 19.74V23.484C189.993 23.3627 189.074 23.5707 188.26 24.108C187.462 24.6453 187.064 25.538 187.064 26.786V33H183.71V20H187.064V22.236ZM198.683 33.364C196.724 33.364 195.086 32.7053 193.769 31.388C192.469 30.0707 191.819 28.4413 191.819 26.5C191.819 24.5587 192.469 22.9293 193.769 21.612C195.086 20.2947 196.724 19.636 198.683 19.636C199.948 19.636 201.101 19.9393 202.141 20.546C203.181 21.1527 203.97 21.9673 204.507 22.99L201.621 24.68C201.361 24.1427 200.962 23.718 200.425 23.406C199.905 23.094 199.316 22.938 198.657 22.938C197.652 22.938 196.82 23.276 196.161 23.952C195.502 24.6107 195.173 25.46 195.173 26.5C195.173 27.5227 195.502 28.372 196.161 29.048C196.82 29.7067 197.652 30.036 198.657 30.036C199.333 30.036 199.931 29.8887 200.451 29.594C200.988 29.282 201.387 28.8573 201.647 28.32L204.559 29.984C203.987 31.0067 203.181 31.83 202.141 32.454C201.101 33.0607 199.948 33.364 198.683 33.364ZM208.964 27.878C209.414 29.5073 210.636 30.322 212.63 30.322C213.912 30.322 214.883 29.8887 215.542 29.022L218.246 30.582C216.963 32.4367 215.074 33.364 212.578 33.364C210.428 33.364 208.704 32.714 207.404 31.414C206.104 30.114 205.454 28.476 205.454 26.5C205.454 24.5413 206.095 22.912 207.378 21.612C208.66 20.2947 210.307 19.636 212.318 19.636C214.224 19.636 215.793 20.2947 217.024 21.612C218.272 22.9293 218.896 24.5587 218.896 26.5C218.896 26.9333 218.852 27.3927 218.766 27.878H208.964ZM208.912 25.278H215.542C215.351 24.394 214.952 23.7353 214.346 23.302C213.756 22.8687 213.08 22.652 212.318 22.652C211.416 22.652 210.671 22.886 210.082 23.354C209.492 23.8047 209.102 24.446 208.912 25.278Z" fill="#262626"/>
<path d="M75.698 54.168C74.214 54.168 72.9867 53.678 72.016 52.698C71.0453 51.718 70.56 50.5187 70.56 49.1C70.56 47.6813 71.0453 46.482 72.016 45.502C72.9867 44.522 74.214 44.032 75.698 44.032C76.6033 44.032 77.434 44.2513 78.19 44.69C78.946 45.1193 79.5293 45.7027 79.94 46.44L79.072 46.944C78.764 46.3467 78.3067 45.8707 77.7 45.516C77.0933 45.1613 76.426 44.984 75.698 44.984C74.4753 44.984 73.4767 45.3807 72.702 46.174C71.9273 46.9673 71.54 47.9427 71.54 49.1C71.54 50.2573 71.9273 51.2327 72.702 52.026C73.4767 52.8193 74.4753 53.216 75.698 53.216C76.426 53.216 77.0933 53.0387 77.7 52.684C78.3067 52.3293 78.764 51.8533 79.072 51.256L79.94 51.746C79.5387 52.4833 78.9553 53.0713 78.19 53.51C77.434 53.9487 76.6033 54.168 75.698 54.168ZM82.3356 48.162C82.765 47.3127 83.5023 46.888 84.5476 46.888V47.784C83.913 47.784 83.3856 47.9707 82.9656 48.344C82.5456 48.7173 82.3356 49.3053 82.3356 50.108V54H81.4116V47H82.3356V48.162ZM88.6242 46.832C89.6602 46.832 90.4955 47.2007 91.1302 47.938C91.7742 48.666 92.0962 49.5293 92.0962 50.528C92.0962 50.6307 92.0868 50.7753 92.0682 50.962H85.9222C86.0155 51.6713 86.3142 52.236 86.8182 52.656C87.3315 53.0667 87.9615 53.272 88.7082 53.272C89.2402 53.272 89.6975 53.1647 90.0802 52.95C90.4722 52.726 90.7662 52.4367 90.9622 52.082L91.7742 52.558C91.4662 53.0527 91.0462 53.4447 90.5142 53.734C89.9822 54.0233 89.3755 54.168 88.6942 54.168C87.5928 54.168 86.6968 53.8227 86.0062 53.132C85.3155 52.4413 84.9702 51.564 84.9702 50.5C84.9702 49.4547 85.3108 48.582 85.9922 47.882C86.6735 47.182 87.5508 46.832 88.6242 46.832ZM88.6242 47.728C87.8962 47.728 87.2848 47.9473 86.7902 48.386C86.3048 48.8153 86.0155 49.3753 85.9222 50.066H91.1442C91.0508 49.3287 90.7662 48.7547 90.2902 48.344C89.8142 47.9333 89.2588 47.728 88.6242 47.728ZM99.5859 47H100.51V54H99.5859V52.628C98.9419 53.6547 97.9993 54.168 96.7579 54.168C95.7593 54.168 94.9053 53.8133 94.1959 53.104C93.4959 52.3947 93.1459 51.5267 93.1459 50.5C93.1459 49.4733 93.4959 48.6053 94.1959 47.896C94.9053 47.1867 95.7593 46.832 96.7579 46.832C97.9993 46.832 98.9419 47.3453 99.5859 48.372V47ZM94.8679 52.474C95.3999 53.006 96.0533 53.272 96.8279 53.272C97.6026 53.272 98.2559 53.006 98.7879 52.474C99.3199 51.9327 99.5859 51.2747 99.5859 50.5C99.5859 49.7253 99.3199 49.072 98.7879 48.54C98.2559 47.9987 97.6026 47.728 96.8279 47.728C96.0533 47.728 95.3999 47.9987 94.8679 48.54C94.3359 49.072 94.0699 49.7253 94.0699 50.5C94.0699 51.2747 94.3359 51.9327 94.8679 52.474ZM106.176 47.896H104.16V52.138C104.16 52.5207 104.235 52.796 104.384 52.964C104.534 53.1227 104.758 53.2067 105.056 53.216C105.355 53.216 105.728 53.2067 106.176 53.188V54C105.196 54.1493 104.459 54.0793 103.964 53.79C103.479 53.5007 103.236 52.95 103.236 52.138V47.896H101.766V47H103.236V45.32L104.16 45.04V47H106.176V47.896ZM110.527 46.832C111.563 46.832 112.398 47.2007 113.033 47.938C113.677 48.666 113.999 49.5293 113.999 50.528C113.999 50.6307 113.989 50.7753 113.971 50.962H107.825C107.918 51.6713 108.217 52.236 108.721 52.656C109.234 53.0667 109.864 53.272 110.611 53.272C111.143 53.272 111.6 53.1647 111.983 52.95C112.375 52.726 112.669 52.4367 112.865 52.082L113.677 52.558C113.369 53.0527 112.949 53.4447 112.417 53.734C111.885 54.0233 111.278 54.168 110.597 54.168C109.495 54.168 108.599 53.8227 107.909 53.132C107.218 52.4413 106.873 51.564 106.873 50.5C106.873 49.4547 107.213 48.582 107.895 47.882C108.576 47.182 109.453 46.832 110.527 46.832ZM110.527 47.728C109.799 47.728 109.187 47.9473 108.693 48.386C108.207 48.8153 107.918 49.3753 107.825 50.066H113.047C112.953 49.3287 112.669 48.7547 112.193 48.344C111.717 47.9333 111.161 47.728 110.527 47.728ZM124.988 47H125.912V54H124.988V52.628C124.344 53.6547 123.402 54.168 122.16 54.168C121.162 54.168 120.308 53.8133 119.598 53.104C118.898 52.3947 118.548 51.5267 118.548 50.5C118.548 49.4733 118.898 48.6053 119.598 47.896C120.308 47.1867 121.162 46.832 122.16 46.832C123.402 46.832 124.344 47.3453 124.988 48.372V47ZM120.27 52.474C120.802 53.006 121.456 53.272 122.23 53.272C123.005 53.272 123.658 53.006 124.19 52.474C124.722 51.9327 124.988 51.2747 124.988 50.5C124.988 49.7253 124.722 49.072 124.19 48.54C123.658 47.9987 123.005 47.728 122.23 47.728C121.456 47.728 120.802 47.9987 120.27 48.54C119.738 49.072 119.472 49.7253 119.472 50.5C119.472 51.2747 119.738 51.9327 120.27 52.474ZM131.145 46.832C131.994 46.832 132.661 47.0933 133.147 47.616C133.641 48.1293 133.889 48.8247 133.889 49.702V54H132.965V49.702C132.965 49.0767 132.797 48.5913 132.461 48.246C132.134 47.9007 131.667 47.728 131.061 47.728C130.389 47.728 129.843 47.9427 129.423 48.372C129.003 48.792 128.793 49.4453 128.793 50.332V54H127.869V47H128.793V48.092C129.315 47.252 130.099 46.832 131.145 46.832ZM145.839 54L144.929 51.592H140.281L139.371 54H138.335L142.101 44.2H143.109L146.875 54H145.839ZM140.631 50.668H144.579L142.605 45.418L140.631 50.668ZM148.134 44.2H149.114V54H148.134V44.2ZM157.954 46.832C158.99 46.832 159.826 47.2007 160.46 47.938C161.104 48.666 161.426 49.5293 161.426 50.528C161.426 50.6307 161.417 50.7753 161.398 50.962H155.252C155.346 51.6713 155.644 52.236 156.148 52.656C156.662 53.0667 157.292 53.272 158.038 53.272C158.57 53.272 159.028 53.1647 159.41 52.95C159.802 52.726 160.096 52.4367 160.292 52.082L161.104 52.558C160.796 53.0527 160.376 53.4447 159.844 53.734C159.312 54.0233 158.706 54.168 158.024 54.168C156.923 54.168 156.027 53.8227 155.336 53.132C154.646 52.4413 154.3 51.564 154.3 50.5C154.3 49.4547 154.641 48.582 155.322 47.882C156.004 47.182 156.881 46.832 157.954 46.832ZM157.954 47.728C157.226 47.728 156.615 47.9473 156.12 48.386C155.635 48.8153 155.346 49.3753 155.252 50.066H160.474C160.381 49.3287 160.096 48.7547 159.62 48.344C159.144 47.9333 158.589 47.728 157.954 47.728ZM170.358 46.832C171.142 46.832 171.772 47.084 172.248 47.588C172.733 48.092 172.976 48.7733 172.976 49.632V54H172.052V49.632C172.052 49.0253 171.893 48.5587 171.576 48.232C171.268 47.896 170.857 47.728 170.344 47.728C169.765 47.728 169.294 47.924 168.93 48.316C168.575 48.6987 168.398 49.3007 168.398 50.122V54H167.474V49.632C167.474 49.016 167.325 48.5447 167.026 48.218C166.737 47.8913 166.34 47.728 165.836 47.728C165.276 47.728 164.8 47.924 164.408 48.316C164.016 48.708 163.82 49.31 163.82 50.122V54H162.896V47H163.82V48.022C164.324 47.2287 165.038 46.832 165.962 46.832C166.97 46.832 167.679 47.2567 168.09 48.106C168.594 47.2567 169.35 46.832 170.358 46.832ZM178.515 46.832C179.514 46.832 180.363 47.1867 181.063 47.896C181.773 48.6053 182.127 49.4733 182.127 50.5C182.127 51.5267 181.773 52.3947 181.063 53.104C180.363 53.8133 179.514 54.168 178.515 54.168C177.274 54.168 176.331 53.6547 175.687 52.628V56.8H174.763V47H175.687V48.372C176.331 47.3453 177.274 46.832 178.515 46.832ZM176.485 52.474C177.017 53.006 177.671 53.272 178.445 53.272C179.22 53.272 179.873 53.006 180.405 52.474C180.937 51.9327 181.203 51.2747 181.203 50.5C181.203 49.7253 180.937 49.072 180.405 48.54C179.873 47.9987 179.22 47.728 178.445 47.728C177.671 47.728 177.017 47.9987 176.485 48.54C175.953 49.072 175.687 49.7253 175.687 50.5C175.687 51.2747 175.953 51.9327 176.485 52.474ZM183.664 54V43.78H184.588V54H183.664ZM192.414 53.118C191.705 53.818 190.837 54.168 189.81 54.168C188.784 54.168 187.911 53.818 187.192 53.118C186.483 52.4087 186.128 51.536 186.128 50.5C186.128 49.464 186.483 48.596 187.192 47.896C187.911 47.1867 188.784 46.832 189.81 46.832C190.837 46.832 191.705 47.1867 192.414 47.896C193.133 48.596 193.492 49.464 193.492 50.5C193.492 51.536 193.133 52.4087 192.414 53.118ZM187.85 52.474C188.382 53.006 189.036 53.272 189.81 53.272C190.585 53.272 191.238 53.006 191.77 52.474C192.302 51.9327 192.568 51.2747 192.568 50.5C192.568 49.7253 192.302 49.072 191.77 48.54C191.238 47.9987 190.585 47.728 189.81 47.728C189.036 47.728 188.382 47.9987 187.85 48.54C187.318 49.072 187.052 49.7253 187.052 50.5C187.052 51.2747 187.318 51.9327 187.85 52.474ZM199.805 47H200.785L197.789 54.644C197.518 55.3347 197.131 55.876 196.627 56.268C196.132 56.6693 195.577 56.8467 194.961 56.8V55.932C195.801 56.0253 196.44 55.54 196.879 54.476L197.061 54.042L193.925 47H194.905L197.537 52.866L199.805 47ZM204.862 46.832C205.898 46.832 206.734 47.2007 207.368 47.938C208.012 48.666 208.334 49.5293 208.334 50.528C208.334 50.6307 208.325 50.7753 208.306 50.962H202.16C202.254 51.6713 202.552 52.236 203.056 52.656C203.57 53.0667 204.2 53.272 204.946 53.272C205.478 53.272 205.936 53.1647 206.318 52.95C206.71 52.726 207.004 52.4367 207.2 52.082L208.012 52.558C207.704 53.0527 207.284 53.4447 206.752 53.734C206.22 54.0233 205.614 54.168 204.932 54.168C203.831 54.168 202.935 53.8227 202.244 53.132C201.554 52.4413 201.208 51.564 201.208 50.5C201.208 49.4547 201.549 48.582 202.23 47.882C202.912 47.182 203.789 46.832 204.862 46.832ZM204.862 47.728C204.134 47.728 203.523 47.9473 203.028 48.386C202.543 48.8153 202.254 49.3753 202.16 50.066H207.382C207.289 49.3287 207.004 48.7547 206.528 48.344C206.052 47.9333 205.497 47.728 204.862 47.728ZM213.038 46.832C214.074 46.832 214.91 47.2007 215.544 47.938C216.188 48.666 216.51 49.5293 216.51 50.528C216.51 50.6307 216.501 50.7753 216.482 50.962H210.336C210.43 51.6713 210.728 52.236 211.232 52.656C211.746 53.0667 212.376 53.272 213.122 53.272C213.654 53.272 214.112 53.1647 214.494 52.95C214.886 52.726 215.18 52.4367 215.376 52.082L216.188 52.558C215.88 53.0527 215.46 53.4447 214.928 53.734C214.396 54.0233 213.79 54.168 213.108 54.168C212.007 54.168 211.111 53.8227 210.42 53.132C209.73 52.4413 209.384 51.564 209.384 50.5C209.384 49.4547 209.725 48.582 210.406 47.882C211.088 47.182 211.965 46.832 213.038 46.832ZM213.038 47.728C212.31 47.728 211.699 47.9473 211.204 48.386C210.719 48.8153 210.43 49.3753 210.336 50.066H215.558C215.465 49.3287 215.18 48.7547 214.704 48.344C214.228 47.9333 213.673 47.728 213.038 47.728Z" fill="#262626"/>
</svg>
